<svg width="135" height="135" viewBox="0 0 135 135" fill="none" xmlns="http://www.w3.org/2000/svg">
<path d="M82.1349 48.8073C82.1349 55.8672 76.4831 61.5903 69.5113 61.5903C62.5395 61.5903 56.8877 55.8672 56.8877 48.8073C56.8877 41.7475 62.5395 36.0244 69.5113 36.0244C76.4831 36.0244 82.1349 41.7475 82.1349 48.8073Z" fill="#FFC131"/>
<ellipse cx="48.2807" cy="85.4134" rx="12.6236" ry="12.7829" transform="rotate(180 48.2807 85.4134)" fill="#24C8DB"/>
<path fill-rule="evenodd" clip-rule="evenodd" d="M95.6748 89.799C90.5806 93.133 84.9359 95.4473 79.0454 96.6509C80.2512 93.1304 80.9063 89.3493 80.9063 85.4132C80.9063 83.9855 80.8201 82.5783 80.6527 81.1964C83.1871 80.3025 85.6201 79.1024 87.8967 77.6124C93.3748 74.0272 97.7141 68.9165 100.393 62.8944C103.072 56.8722 103.977 50.1949 102.999 43.6646C102.021 37.1343 99.2014 31.0289 94.8795 26.082C90.5575 21.1351 84.9169 17.5571 78.6353 15.778C72.3538 13.9988 65.6985 14.0942 59.4692 16.0527C53.2398 18.0112 47.7015 21.7494 43.5195 26.8182C42.9839 27.4674 42.4734 28.135 41.9888 28.8193C35.5354 29.5453 29.285 31.3948 23.5049 34.2557C25.3863 28.1565 28.4409 22.4626 32.5228 17.5151C38.474 10.3018 46.3555 4.98201 55.2203 2.19496C64.0851 -0.59209 73.556 -0.727852 82.4951 1.80399C91.4343 4.33582 99.4613 9.42755 105.612 16.4674C111.762 23.5072 115.774 32.1956 117.166 41.4887C118.558 50.7818 117.271 60.2842 113.458 68.8542C109.646 77.4241 103.471 84.697 95.6748 89.799ZM24.0788 43.1569L35.8948 44.6265C36.1761 42.3074 36.6892 40.0349 37.4201 37.8418C32.7336 38.9308 28.2364 40.7235 24.0788 43.1569Z" fill="#FFC131"/>
<path fill-rule="evenodd" clip-rule="evenodd" d="M22.0365 44.4218C27.169 41.0627 32.8603 38.7388 38.7987 37.543C37.4563 41.2347 36.7232 45.225 36.7232 49.3886C36.7232 50.634 36.7888 51.8638 36.9167 53.0749C34.4334 53.9633 32.0487 55.1463 29.8146 56.6084C24.3365 60.1936 19.9972 65.3043 17.3182 71.3264C14.6392 77.3485 13.7343 84.0259 14.7124 90.5562C15.6905 97.0865 18.5099 103.192 22.8319 108.139C27.1538 113.086 32.7945 116.664 39.076 118.443C45.3576 120.222 52.0129 120.127 58.2422 118.168C64.4715 116.21 70.0099 112.471 74.1918 107.403C74.7301 106.75 75.2431 106.079 75.7299 105.391C82.1886 104.654 88.4411 102.792 94.2212 99.9172C92.3411 106.034 89.2811 111.745 85.1886 116.706C79.2374 123.919 71.3559 129.239 62.4911 132.026C53.6263 134.813 44.1553 134.949 35.2162 132.417C26.2771 129.885 18.25 124.793 12.0996 117.753C5.94912 110.714 1.9369 102.025 0.545009 92.7321C-0.846884 83.439 0.440759 73.9366 4.25322 65.3666C8.06568 56.7967 14.2408 49.5238 22.0365 44.4218ZM80.7818 96.2421C80.6208 96.2816 80.4596 96.3203 80.2982 96.3581C80.2982 96.3582 80.2982 96.3582 80.2982 96.3582C80.4597 96.3204 80.6209 96.2816 80.7818 96.2421Z" fill="#24C8DB"/>
</svg>
